<mxfile host="65bd71144e">
    <diagram id="HIP3nbAZw_EuaXWnEj3U" name="Page-1">
        <mxGraphModel dx="768" dy="661" grid="1" gridSize="10" guides="1" tooltips="1" connect="1" arrows="1" fold="1" page="1" pageScale="1" pageWidth="850" pageHeight="1100" math="0" shadow="0">
            <root>
                <mxCell id="0"/>
                <mxCell id="1" parent="0"/>
                <mxCell id="7" value="http://ics2o.mths.ca" style="swimlane;whiteSpace=wrap;html=1;" parent="1" vertex="1">
                    <mxGeometry x="45" y="50" width="760" height="480" as="geometry"/>
                </mxCell>
                <mxCell id="10" value="&lt;font style=&quot;font-size: 30px; color: rgb(255, 255, 255);&quot;&gt;Welcome! To start, click. Once the screen turns Green, click as fast as you can!&lt;/font&gt;" style="rounded=1;whiteSpace=wrap;html=1;absoluteArcSize=1;arcSize=14;strokeWidth=2;fillColor=light-dark(#FF0000,#EDEDED);" parent="7" vertex="1">
                    <mxGeometry x="10" y="30" width="740" height="443" as="geometry"/>
                </mxCell>
            </root>
        </mxGraphModel>
    </diagram>
    <diagram id="xZd-dwAP33JFNRhD8Y-2" name="Page-2">
        <mxGraphModel dx="768" dy="661" grid="1" gridSize="10" guides="1" tooltips="1" connect="1" arrows="1" fold="1" page="1" pageScale="1" pageWidth="850" pageHeight="1100" math="0" shadow="0">
            <root>
                <mxCell id="0"/>
                <mxCell id="1" parent="0"/>
                <mxCell id="-gzoZsnbq3_AWxQGnnQ5-1" value="http://ics2o.mths.ca" style="swimlane;whiteSpace=wrap;html=1;" vertex="1" parent="1">
                    <mxGeometry x="45" y="50" width="760" height="480" as="geometry"/>
                </mxCell>
                <mxCell id="-gzoZsnbq3_AWxQGnnQ5-2" value="&lt;font style=&quot;font-size: 30px; color: rgb(255, 255, 255);&quot;&gt;Wait for green...&lt;/font&gt;" style="rounded=1;whiteSpace=wrap;html=1;absoluteArcSize=1;arcSize=14;strokeWidth=2;fillColor=light-dark(#FF0000,#EDEDED);" vertex="1" parent="-gzoZsnbq3_AWxQGnnQ5-1">
                    <mxGeometry x="10" y="30" width="740" height="443" as="geometry"/>
                </mxCell>
            </root>
        </mxGraphModel>
    </diagram>
    <diagram id="ogqSFqQ4deBZgRlbtdCo" name="Page-3">
        <mxGraphModel dx="768" dy="661" grid="1" gridSize="10" guides="1" tooltips="1" connect="1" arrows="1" fold="1" page="1" pageScale="1" pageWidth="850" pageHeight="1100" math="0" shadow="0">
            <root>
                <mxCell id="0"/>
                <mxCell id="1" parent="0"/>
                <mxCell id="T5XwaGNkUxt0PP9xZNU3-1" value="http://ics2o.mths.ca" style="swimlane;whiteSpace=wrap;html=1;" vertex="1" parent="1">
                    <mxGeometry x="45" y="50" width="760" height="480" as="geometry"/>
                </mxCell>
                <mxCell id="T5XwaGNkUxt0PP9xZNU3-2" value="&lt;font style=&quot;font-size: 30px; color: rgb(255, 255, 255);&quot;&gt;Welcome! To start, click. Once the screen turns Green, click as fast as you can!&lt;/font&gt;" style="rounded=1;whiteSpace=wrap;html=1;absoluteArcSize=1;arcSize=14;strokeWidth=2;fillColor=light-dark(#FF0000,#EDEDED);" vertex="1" parent="T5XwaGNkUxt0PP9xZNU3-1">
                    <mxGeometry x="10" y="30" width="740" height="443" as="geometry"/>
                </mxCell>
            </root>
        </mxGraphModel>
    </diagram>
</mxfile>